# xmcd
#
# Track frame offsets:
#	150
#	14840
#	30889
#	45399
#	59633
#	78018
#	96938
#	114336
#	131061
#	146014
#	163427
#	178706
#	194167
#	209706
#	231545
#
# Disc length: 3320 seconds
#
# Revision: 0
# Processed by: cddbd v1.5.1PL0 Copyright (c) Steve Scherf et al.
# Submitted via: audiograbber 1.83.01
#
DISCID=e20cf60f
DTITLE=Various Artist - CB60001
DYEAR=1997
DGENRE=Karaoke
TTITLE0=Tracy Lawrence - Time Marches On
TTITLE1=Patty Loveless - You Can Feel Bad
TTITLE2=Ricochet - Daddy's Money
TTITLE3=Terri Clark - When Boy Meets Girl
TTITLE4=Collin Raye - Not That Different
TTITLE5=Shania Twain - You Win My Love
TTITLE6=Joe Diffie - Bigger Than The Beatles
TTITLE7=Martina McBride - Wild Angels
TTITLE8=Wade Hayes - On A Good Night
TTITLE9=Bryan White - I'm Not Supposed To Love You Anymore
TTITLE10=John Michael Montgomery - Cowboy Love
TTITLE11=Faith Hill - It Matters To Me
TTITLE12=Neal McCoy - Then You Can Tell Me Goodbye
TTITLE13=Wynonna Judd - Heaven Help My Heart
TTITLE14=Tim McGraw - Can't Be Really Gone
EXTD=
EXTT0=
EXTT1=
EXTT2=
EXTT3=
EXTT4=
EXTT5=
EXTT6=
EXTT7=
EXTT8=
EXTT9=
EXTT10=
EXTT11=
EXTT12=
EXTT13=
EXTT14=
PLAYORDER=
